
<svg fill="#000000" height="35px" width="35px" version="1.1" id="Layer_1" xmlns="http://www.w3.org/2000/svg" xmlns:xlink="http://www.w3.org/1999/xlink" 
	 viewBox="0 0 512 512" xml:space="preserve">
<g>
	<g>
		<path d="M467.478,66.783V33.391h-33.391V0H77.913v33.391H44.522v33.391H11.13v244.87h33.391v66.783h33.391v33.391h33.391v33.391
			h33.391v33.391h66.783V512h89.043v-33.391h66.783v-33.391h33.391v-33.391h33.391v-33.391h33.391v-66.783h33.391V66.783H467.478z
			 M400.696,189.217h-33.391v33.391h-33.391V256h-33.391v33.391H267.13v33.391h-33.391v33.391h-44.522v-33.391h-33.391v-33.391
			h-33.391v-66.783h66.783V256h44.522v-33.391h33.391v-33.391h33.391v-33.391h33.391v-33.391h66.783V189.217z"/>
	</g>
</g>
</svg>